<?xml version="1.0" standalone="no"?>
<!DOCTYPE svg PUBLIC "-//W3C//DTD SVG 20010904//EN"
 "http://www.w3.org/TR/2001/REC-SVG-20010904/DTD/svg10.dtd">
<svg version="1.0" xmlns="http://www.w3.org/2000/svg"
 width="512.000000pt" height="512.000000pt" viewBox="0 0 512.000000 512.000000"
 preserveAspectRatio="xMidYMid meet">
<metadata>
Created by potrace 1.11, written by Peter Selinger 2001-2013
</metadata>
<g transform="translate(0.000000,512.000000) scale(0.100000,-0.100000)"
fill="#000000" stroke="none">
<path d="M3069 4608 c-13 -9 -14 -19 -6 -62 14 -79 2 -238 -28 -364 -15 -62
-32 -115 -39 -118 -10 -3 -782 -74 -813 -74 -20 0 -18 228 2 277 9 20 14 42
11 49 -2 7 -55 51 -116 99 -100 77 -114 85 -127 72 -14 -13 -12 -22 11 -80 40
-99 65 -221 68 -332 l3 -100 -500 -45 c-275 -25 -499 -49 -498 -54 1 -5 43
-34 93 -66 l93 -57 56 14 c61 14 260 47 386 63 67 8 359 40 371 40 9 0 2 -89
-10 -141 l-14 -56 67 -89 c36 -49 73 -89 81 -89 24 0 30 61 24 227 l-7 157 34
5 c71 12 740 68 745 63 3 -3 -20 -80 -52 -172 -34 -98 -53 -170 -48 -175 5 -5
21 -12 36 -15 25 -6 29 -3 64 67 20 40 61 127 90 193 29 66 58 121 66 122 7 1
225 21 483 43 551 47 555 47 555 64 0 7 -36 41 -81 75 l-80 63 -102 -26 c-161
-41 -717 -120 -733 -104 -7 7 75 187 107 236 16 24 29 51 29 62 0 14 -194 242
-203 239 -1 0 -9 -5 -18 -11z"/>
<path d="M2452 3831 c-12 -7 -11 -13 1 -37 21 -41 45 -155 53 -250 l7 -82 -49
-6 c-27 -3 -231 -24 -454 -46 -222 -23 -405 -42 -407 -43 -1 -2 33 -28 77 -59
l79 -57 58 14 c82 19 181 33 454 64 l239 28 0 -104 c0 -98 -1 -103 -22 -107
-13 -3 -403 -39 -868 -81 -464 -42 -845 -77 -847 -78 -1 -2 34 -31 79 -66 l80
-64 87 17 c127 24 404 61 671 90 224 24 774 76 805 76 12 0 15 -19 15 -110 0
-60 -3 -110 -6 -110 -20 0 -918 -91 -920 -93 -2 -1 35 -26 82 -56 l84 -53 136
27 c111 22 138 25 144 14 5 -7 14 -42 20 -78 15 -84 -5 -310 -27 -318 -27 -11
-368 -59 -371 -53 -4 10 25 142 39 176 12 32 12 32 -86 142 -99 110 -134 132
-121 73 43 -197 27 -659 -33 -944 -45 -217 -137 -431 -258 -599 -32 -45 -115
-141 -185 -213 -103 -107 -125 -134 -117 -148 6 -9 15 -17 20 -17 15 0 153
107 231 179 136 126 252 294 335 488 25 59 47 110 49 112 3 3 17 -8 32 -22
l29 -27 94 24 c52 13 128 29 169 36 41 6 88 13 103 15 l29 5 -4 -168 c-3 -146
-6 -172 -24 -207 l-21 -39 40 -86 c22 -47 48 -94 58 -104 18 -20 19 -19 41 30
21 45 23 68 28 300 l5 251 34 54 33 54 -68 62 c-38 34 -72 63 -75 63 -3 0 -23
-25 -43 -55 -20 -31 -42 -58 -49 -60 -18 -7 -382 -64 -385 -60 -2 1 6 38 17
81 25 101 48 240 62 374 5 57 12 106 13 108 2 2 128 22 280 46 152 23 281 47
286 52 7 7 -1 26 -25 57 l-36 47 15 82 c10 54 23 89 37 104 15 17 19 27 12 36
-5 7 -36 46 -68 86 -32 40 -56 74 -54 76 2 2 69 8 149 15 80 6 173 14 208 18
l62 6 0 -372 0 -371 -22 -1 c-13 0 -191 -19 -397 -42 l-374 -42 76 -53 77 -53
117 21 c110 19 482 70 512 70 11 0 12 -52 8 -302 -5 -317 -13 -382 -59 -505
l-20 -54 72 -129 c39 -72 77 -130 84 -130 43 0 55 133 63 680 l6 456 381 42
c210 24 386 48 391 54 15 15 -104 120 -130 114 -11 -2 -60 -13 -110 -24 -81
-19 -483 -82 -520 -82 -13 0 -15 48 -15 368 l0 369 150 13 c83 7 154 9 158 5
4 -3 7 -91 7 -195 l0 -188 -33 -40 -32 -41 57 -44 c78 -59 86 -61 119 -26 15
16 46 36 68 44 35 13 341 65 382 65 12 0 14 -47 14 -280 l0 -279 -32 -6 c-125
-21 -384 -52 -389 -47 -3 4 -19 38 -34 75 -22 53 -32 67 -47 65 -18 -3 -19
-18 -21 -283 -2 -270 -3 -282 -25 -323 l-22 -43 60 -126 c38 -79 64 -123 72
-121 32 11 41 80 46 364 l4 282 167 22 c91 12 178 24 194 27 l27 5 0 -203 c-1
-219 -8 -308 -35 -391 l-16 -53 71 -138 c40 -76 77 -136 83 -134 6 2 16 19 20
38 5 19 12 414 16 879 6 779 8 849 24 890 10 25 21 52 23 61 5 15 -52 92 -148
203 -31 35 -36 38 -57 27 -14 -8 -20 -18 -17 -27 11 -30 25 -141 32 -259 l6
-121 -223 -32 c-123 -18 -227 -32 -231 -32 -11 0 -9 115 1 165 5 22 15 54 22
72 13 31 11 34 -35 93 -26 34 -46 64 -44 66 2 2 78 10 168 18 269 25 270 25
270 45 0 9 -13 35 -29 57 l-29 39 19 99 c11 55 21 101 22 102 1 1 202 18 447
38 245 20 453 39 462 42 29 9 8 34 -82 99 l-82 58 -109 -27 c-118 -29 -380
-70 -526 -81 l-91 -7 17 78 c25 110 35 130 80 161 22 16 40 32 41 37 0 4 -35
44 -77 88 l-78 79 -68 -70 -69 -71 -302 -30 c-165 -16 -314 -31 -331 -32 -28
-3 -30 -1 -27 27 2 17 14 52 28 78 13 27 24 53 24 57 0 13 -217 200 -232 200
-7 0 -19 -4 -26 -9z m905 -414 c-2 -7 -10 -54 -17 -104 l-13 -92 -41 -5 c-22
-3 -151 -15 -286 -26 -135 -11 -269 -23 -297 -26 l-53 -6 0 106 c0 94 2 106
18 107 9 0 143 13 297 28 329 33 399 37 392 18z m-65 -414 c-8 -54 -15 -99
-16 -100 -1 -1 -142 -17 -314 -36 l-312 -33 0 111 0 112 263 20 c144 11 292
21 328 22 l66 1 -15 -97z"/>
</g>
</svg>
